<svg xmlns="http://www.w3.org/2000/svg" viewBox="0 0 400 300"><rect width="400" height="300" fill="#1f3b4d"/><rect x="14" y="14" width="372" height="272" rx="10" fill="#2b5a72" stroke="#5f8aa0" stroke-width="4"/><path d="M200 26v248" stroke="#8fb3c4" stroke-width="5" stroke-dasharray="12 12"/><circle cx="200" cy="150" r="38" fill="none" stroke="#5f8aa0" stroke-width="4"/><text x="150" y="88" font-family="Arial,sans-serif" font-weight="900" font-size="56" fill="#ff8a6a" text-anchor="middle">3</text><text x="250" y="88" font-family="Arial,sans-serif" font-weight="900" font-size="56" fill="#7fb0ff" text-anchor="middle">2</text><rect x="36" y="100" width="16" height="80" rx="8" fill="#ff5a36"/><rect x="40" y="108" width="4" height="64" rx="2" fill="#ffb39f"/><rect x="348" y="150" width="16" height="80" rx="8" fill="#3d8bfd"/><rect x="352" y="158" width="4" height="64" rx="2" fill="#a9c9ff"/><g fill="#ffd54f"><circle cx="110" cy="170" r="4" opacity=".35"/><circle cx="132" cy="182" r="5" opacity=".5"/><circle cx="156" cy="194" r="6" opacity=".65"/><circle cx="180" cy="205" r="7" opacity=".8"/></g><circle cx="208" cy="216" r="12" fill="#fff"/><path d="M60 128l20-10M60 150h22M60 172l20 10" stroke="#fff" stroke-width="4" stroke-linecap="round" opacity=".7"/></svg>
