<svg xmlns="http://www.w3.org/2000/svg" viewBox="0 0 400 300"><defs><radialGradient id="s" cx="40%" cy="40%"><stop offset="0" stop-color="#fffbe8"/><stop offset=".6" stop-color="#ffd36a"/><stop offset="1" stop-color="#f08a24"/></radialGradient><radialGradient id="gl"><stop offset="0" stop-color="#ffc56a" stop-opacity=".55"/><stop offset="1" stop-color="#ffc56a" stop-opacity="0"/></radialGradient><radialGradient id="b" cx="35%" cy="35%"><stop offset="0" stop-color="#7cc4ff"/><stop offset="1" stop-color="#1b4b9a"/></radialGradient></defs><rect width="400" height="300" fill="#0d1030"/><g fill="#fff"><circle cx="30" cy="40" r="1.5"/><circle cx="90" cy="24" r="1"/><circle cx="340" cy="30" r="1.5"/><circle cx="370" cy="90" r="1"/><circle cx="60" cy="110" r="1"/><circle cx="300" cy="60" r="1"/><circle cx="250" cy="20" r="1.2"/></g><circle cx="200" cy="120" r="80" fill="url(#gl)"/><ellipse cx="200" cy="120" rx="150" ry="48" fill="none" stroke="#fff" stroke-opacity=".25" stroke-dasharray="3 6"/><ellipse cx="200" cy="120" rx="90" ry="28" fill="none" stroke="#fff" stroke-opacity=".2" stroke-dasharray="3 6"/><circle cx="200" cy="120" r="30" fill="url(#s)"/><circle cx="290" cy="120" r="10" fill="url(#b)"/><g transform="translate(88 148)"><ellipse rx="30" ry="7" fill="none" stroke="#e6d6b4" stroke-width="3"/><circle r="15" fill="#c99a6b"/><path d="M-15-3h30M-14 5h28" stroke="#ead6b4" stroke-width="3"/></g><path d="M330 70q-30 10-40 40" stroke="#ffb27a" stroke-width="2" stroke-dasharray="2 5" fill="none"/><path d="M0 300V236q60-16 90-6l20-22q30-34 90-34t90 34l20 22q30-10 90 6v64z" fill="#2a2f45"/><path d="M110 208q30-34 90-34t90 34z" fill="#3a4060" stroke="#b8892f" stroke-width="4"/><path d="M188 176l24 0 18 30h-60z" fill="#0d1030"/><rect x="190" y="160" width="20" height="40" rx="4" fill="#b8892f" transform="rotate(-30 200 200)"/><rect x="140" y="264" width="120" height="20" rx="3" fill="#c9a24d"/><text x="200" y="279" font-family="Courier New,monospace" font-weight="700" font-size="12" text-anchor="middle" fill="#2b1d07">OBSERVATORY</text></svg>
