<svg xmlns="http://www.w3.org/2000/svg" viewBox="0 0 400 300">
  <rect width="400" height="300" fill="#b71c1c"/>
  <circle cx="30" cy="30" r="70" fill="#c62828"/>
  <g transform="translate(200 158) rotate(-8) skewX(-6)">
    <rect x="-128" y="-128" width="256" height="256" rx="10" fill="#5d3a26"/>
    <rect x="-118" y="-118" width="236" height="236" fill="#f3dfc1"/>
    <g fill="#a86b4c">
      <rect x="-88.5" y="-118" width="29.5" height="29.5"/><rect x="-29.5" y="-118" width="29.5" height="29.5"/><rect x="29.5" y="-118" width="29.5" height="29.5"/><rect x="88.5" y="-118" width="29.5" height="29.5"/>
      <rect x="-118" y="-88.5" width="29.5" height="29.5"/><rect x="-59" y="-88.5" width="29.5" height="29.5"/><rect x="0" y="-88.5" width="29.5" height="29.5"/><rect x="59" y="-88.5" width="29.5" height="29.5"/>
      <rect x="-88.5" y="-59" width="29.5" height="29.5"/><rect x="-29.5" y="-59" width="29.5" height="29.5"/><rect x="29.5" y="-59" width="29.5" height="29.5"/><rect x="88.5" y="-59" width="29.5" height="29.5"/>
      <rect x="-118" y="-29.5" width="29.5" height="29.5"/><rect x="-59" y="-29.5" width="29.5" height="29.5"/><rect x="0" y="-29.5" width="29.5" height="29.5"/><rect x="59" y="-29.5" width="29.5" height="29.5"/>
      <rect x="-88.5" y="0" width="29.5" height="29.5"/><rect x="-29.5" y="0" width="29.5" height="29.5"/><rect x="29.5" y="0" width="29.5" height="29.5"/><rect x="88.5" y="0" width="29.5" height="29.5"/>
      <rect x="-118" y="29.5" width="29.5" height="29.5"/><rect x="-59" y="29.5" width="29.5" height="29.5"/><rect x="0" y="29.5" width="29.5" height="29.5"/><rect x="59" y="29.5" width="29.5" height="29.5"/>
      <rect x="-88.5" y="59" width="29.5" height="29.5"/><rect x="-29.5" y="59" width="29.5" height="29.5"/><rect x="29.5" y="59" width="29.5" height="29.5"/><rect x="88.5" y="59" width="29.5" height="29.5"/>
      <rect x="-118" y="88.5" width="29.5" height="29.5"/><rect x="-59" y="88.5" width="29.5" height="29.5"/><rect x="0" y="88.5" width="29.5" height="29.5"/><rect x="59" y="88.5" width="29.5" height="29.5"/>
    </g>
    <g stroke-width="3">
      <circle cx="-73.75" cy="-103.25" r="11" fill="#2f2a28" stroke="#000"/><circle cx="44.25" cy="-103.25" r="11" fill="#2f2a28" stroke="#000"/>
      <circle cx="-103.25" cy="-73.75" r="11" fill="#2f2a28" stroke="#000"/><circle cx="14.75" cy="-73.75" r="11" fill="#2f2a28" stroke="#000"/>
      <circle cx="-14.75" cy="-44.25" r="11" fill="#2f2a28" stroke="#000"/><circle cx="103.25" cy="-44.25" r="11" fill="#2f2a28" stroke="#000"/>
      <circle cx="-44.25" cy="44.25" r="11" fill="#d7263d" stroke="#9e1528"/><circle cx="73.75" cy="14.75" r="11" fill="#d7263d" stroke="#9e1528"/>
      <circle cx="-103.25" cy="73.75" r="11" fill="#d7263d" stroke="#9e1528"/><circle cx="14.75" cy="73.75" r="11" fill="#d7263d" stroke="#9e1528"/>
      <circle cx="-73.75" cy="103.25" r="11" fill="#d7263d" stroke="#9e1528"/><circle cx="44.25" cy="103.25" r="11" fill="#d7263d" stroke="#9e1528"/>
    </g>
    <path d="M-44.25 44.25 Q-40 -10 -14.75 -44.25" stroke="#ffe082" stroke-width="4" fill="none" stroke-dasharray="6 6"/>
    <path d="M60 4 l6 -12 7 8 7 -8 6 12z" fill="#ffd54f"/>
  </g>
</svg>
