<svg xmlns="http://www.w3.org/2000/svg" viewBox="0 0 400 300">
  <rect width="400" height="300" fill="#141414"/>
  <circle cx="200" cy="150" r="96" fill="none" stroke="#3a3a3a" stroke-width="2" stroke-dasharray="6 8"/>
  <path d="M296 150 A96 96 0 0 1 240 237" fill="none" stroke="#3ddc62" stroke-width="12" stroke-linecap="round"/>
  <path d="M240 237 C205 252 160 250 130 222" fill="none" stroke="#9be03b" stroke-width="12" stroke-linecap="round"/>
  <path d="M130 222 C98 192 96 150 108 120" fill="none" stroke="#f2c230" stroke-width="12" stroke-linecap="round"/>
  <path d="M108 120 C122 80 158 58 196 56" fill="none" stroke="#ff8a2a" stroke-width="12" stroke-linecap="round"/>
  <path d="M196 56 C236 54 268 72 284 100" fill="none" stroke="#3ddc62" stroke-width="12" stroke-linecap="round"/>
  <circle cx="200" cy="150" r="8" fill="#fff"/>
  <text x="200" y="192" fill="#3ddc62" font-family="monospace" font-weight="900" font-size="30" text-anchor="middle">94.7%</text>
  <g transform="translate(284 100) rotate(-35)">
    <rect x="-6" y="-58" width="12" height="52" rx="3" fill="#ffc233"/>
    <path d="M-6 -6 L0 8 L6 -6 Z" fill="#f5d7a1"/>
    <path d="M-2 2 L0 8 L2 2 Z" fill="#333"/>
    <rect x="-6" y="-66" width="12" height="9" rx="3" fill="#ff6fb5"/>
  </g>
</svg>
