<svg xmlns="http://www.w3.org/2000/svg" viewBox="0 0 400 300"><rect width="400" height="300" fill="#f3e9da"/><defs><g id="w"><rect width="56" height="56" rx="6" fill="#8a6f5c"/><rect width="56" height="5" rx="2" fill="#a5897a"/><rect y="27" width="56" height="3" fill="#6d5547"/><rect x="26" y="5" width="3" height="22" fill="#6d5547"/><rect y="50" width="56" height="6" rx="3" fill="#6d5547"/></g><g id="c"><rect x="4" y="4" width="48" height="48" rx="6" fill="#d9963c" stroke="#b5752a" stroke-width="5"/><path d="M8 8l40 40M48 8L8 48" stroke="#b5752a" stroke-width="5"/></g></defs><rect x="32" y="38" width="336" height="224" rx="10" fill="#e6dcc9"/><g><use href="#w" x="32" y="38"/><use href="#w" x="88" y="38"/><use href="#w" x="144" y="38"/><use href="#w" x="200" y="38"/><use href="#w" x="256" y="38"/><use href="#w" x="312" y="38"/><use href="#w" x="32" y="94"/><use href="#w" x="32" y="150"/><use href="#w" x="32" y="206"/><use href="#w" x="88" y="206"/><use href="#w" x="144" y="206"/><use href="#w" x="200" y="206"/><use href="#w" x="256" y="206"/><use href="#w" x="312" y="206"/><use href="#w" x="312" y="94"/><use href="#w" x="312" y="150"/><use href="#w" x="200" y="94"/></g><circle cx="284" cy="178" r="17" fill="none" stroke="#e05a3a" stroke-width="5" stroke-dasharray="7 5"/><circle cx="284" cy="122" r="17" fill="none" stroke="#e05a3a" stroke-width="5" stroke-dasharray="7 5"/><use href="#c" x="200" y="150"/><g transform="translate(256 94)"><rect x="4" y="4" width="48" height="48" rx="6" fill="#4caf50" stroke="#2e7d32" stroke-width="5"/><path d="M8 8l40 40M48 8L8 48" stroke="#2e7d32" stroke-width="5"/></g><g transform="translate(172 178)"><circle r="22" fill="#1e88e5"/><circle cx="-5" cy="-6" r="13" fill="#6ec6ff" opacity=".6"/><ellipse cx="6" cy="-4" rx="4" ry="6" fill="#fff"/><ellipse cx="15" cy="-4" rx="4" ry="6" fill="#fff"/><circle cx="8" cy="-3" r="2.2" fill="#102a43"/><circle cx="17" cy="-3" r="2.2" fill="#102a43"/></g><g stroke="#5d5750" stroke-width="4" stroke-linecap="round" opacity=".5"><path d="M138 168h-18M140 182h-26M138 196h-18"/></g></svg>
