<svg xmlns="http://www.w3.org/2000/svg" viewBox="0 0 400 300">
<defs><linearGradient id="w" x1="0" y1="0" x2="0" y2="1"><stop offset="0" stop-color="#9a6540"/><stop offset="1" stop-color="#6f4428"/></linearGradient></defs>
<rect width="400" height="300" fill="url(#w)"/>
<g stroke="#5c381f" stroke-width="2" opacity=".35"><path d="M0 40h400M0 120h400M0 210h400M0 270h400"/></g>
<g transform="rotate(-5 200 150)">
<rect x="92" y="34" width="210" height="250" rx="4" fill="#5a3a22" opacity=".4" transform="translate(6 8)"/>
<rect x="92" y="34" width="210" height="250" rx="4" fill="#fffdf6"/>
<path d="M118 34v250" stroke="#e7a3a0" stroke-width="2"/>
<circle cx="146" cy="66" r="17" fill="#d1495b"/>
<circle cx="146" cy="66" r="12" fill="none" stroke="#fff" stroke-opacity=".5" stroke-width="2"/>
<path d="M170 60h104M170 74h70" stroke="#1d1b2f" stroke-width="6" stroke-linecap="round"/>
<path d="M118 92h184" stroke="#1d1b2f" stroke-width="2"/>
<g stroke="#a8a4b8" stroke-width="5" stroke-linecap="round">
<path d="M130 112h150M130 126h110M130 186h146M130 200h96M130 222h150M130 236h120"/>
</g>
<path d="M130 152h140M130 166h90" stroke="#1d1b2f" stroke-width="5" stroke-linecap="round"/>
<path d="M124 162c-4-26 158-30 162-6 3 22-150 30-160 10-3-8 14-20 40-24" fill="none" stroke="#d0312d" stroke-width="5" stroke-linecap="round"/>
<path d="M134 266c10-20 16-18 14-2-1 12 10-14 18-10 6 3-4 14 4 12 10-3 12-14 22-10 8 4 0 10 12 8 14-2 26-8 46-6" fill="none" stroke="#1f3fa0" stroke-width="3" stroke-linecap="round"/>
<path d="M124 274h150" stroke="#1d1b2f" stroke-width="2"/>
</g>
<g transform="translate(300 190) rotate(-38)">
<rect x="-8" y="-80" width="18" height="120" rx="5" fill="#d0312d"/>
<rect x="-8" y="-80" width="18" height="30" rx="5" fill="#a32420"/>
<path d="M-8 40l9 22 9-22z" fill="#f2d7b6"/>
<path d="M-2 54l3 8 3-8z" fill="#1d1b2f"/>
</g>
<g transform="translate(40 190)">
<ellipse cx="26" cy="96" rx="40" ry="12" fill="#000" opacity=".18"/>
<path d="M2 60c0-24 18-36 38-30 16 5 22 24 16 40-6 16-24 24-38 18C6 82 2 72 2 60z" fill="#fff" stroke="#1d1b2f" stroke-width="4"/>
<path d="M40 34c-4-16 0-34 6-44 6-10 18-8 20 2 2 8-6 10-10 16-4 8-2 18-2 26" fill="#fff" stroke="#1d1b2f" stroke-width="4" stroke-linejoin="round"/>
<path d="M64 -6l20 4-18 8z" fill="#f4a261" stroke="#1d1b2f" stroke-width="3" stroke-linejoin="round"/>
<circle cx="56" cy="-2" r="3.5" fill="#1d1b2f"/>
<path d="M18 58c8 6 20 6 28-2" fill="none" stroke="#1d1b2f" stroke-width="3" stroke-linecap="round"/>
</g>
<g transform="translate(318 60) rotate(14)">
<rect x="-44" y="-18" width="88" height="36" rx="6" fill="none" stroke="#1d7a46" stroke-width="5"/>
<text x="0" y="8" text-anchor="middle" font-family="Courier New,monospace" font-weight="700" font-size="20" fill="#1d7a46">NOPE</text>
</g>
</svg>
