<svg xmlns="http://www.w3.org/2000/svg" viewBox="0 0 400 300"><defs><linearGradient id="d" x1="0" y1="0" x2="0" y2="1"><stop offset="0" stop-color="#2f4a3c"/><stop offset="1" stop-color="#1c2f24"/></linearGradient><linearGradient id="m" x1="0" y1="0" x2="1" y2="1"><stop offset="0" stop-color="#f0cc86"/><stop offset="1" stop-color="#d9aa58"/></linearGradient></defs><rect width="400" height="300" fill="#5b3b22"/><rect x="12" y="12" width="376" height="276" rx="6" fill="url(#d)"/><g transform="rotate(-5 160 150)"><path d="M50 70h70l10-14h70l8 14h52v170H50z" fill="#d9aa58"/><rect x="50" y="80" width="210" height="160" fill="url(#m)"/><g fill="#9b7334"><rect x="72" y="104" width="150" height="8" rx="3"/><rect x="72" y="122" width="170" height="8" rx="3"/><rect x="72" y="140" width="120" height="8" rx="3"/></g><circle cx="226" cy="206" r="22" fill="none" stroke="#a5743a" stroke-width="4" opacity=".5"/><g transform="rotate(-12 150 190)"><rect x="86" y="168" width="130" height="44" rx="6" fill="none" stroke="#1d8a4d" stroke-width="5"/><rect x="92" y="174" width="118" height="32" rx="4" fill="none" stroke="#1d8a4d" stroke-width="2"/><text x="151" y="199" text-anchor="middle" font-family="Courier New,monospace" font-weight="900" font-size="24" fill="#1d8a4d">TRUE</text></g><path d="M236 54v40a8 8 0 0 1-16 0V60" fill="none" stroke="#9aa3ad" stroke-width="4" stroke-linecap="round"/></g><g transform="translate(296 120)"><circle cx="30" cy="0" r="18" fill="#7a4e2c"/><rect x="22" y="12" width="16" height="44" rx="5" fill="#5d3b22"/><rect x="-2" y="54" width="64" height="22" rx="4" fill="#4f311b"/><rect x="0" y="76" width="60" height="10" fill="#c8352d"/></g><g transform="rotate(6 330 250)"><rect x="282" y="226" width="96" height="40" rx="5" fill="none" stroke="#c8352d" stroke-width="5"/><text x="330" y="254" text-anchor="middle" font-family="Courier New,monospace" font-weight="900" font-size="20" fill="#c8352d">FALSE</text></g><g transform="translate(250 28) rotate(20)"><circle cx="0" cy="30" r="24" fill="rgba(160,210,255,.3)" stroke="#2a1d14" stroke-width="7"/><path d="M0 54v34" stroke="#2a1d14" stroke-width="10" stroke-linecap="round"/></g></svg>
