<svg xmlns="http://www.w3.org/2000/svg" viewBox="0 0 400 300">
<rect width="400" height="300" fill="#f1e4cc"/>
<path d="M0 230h400v70H0z" fill="#b98a5e"/>
<path d="M0 230h400v8H0z" fill="#9c6f45"/>
<g transform="rotate(-6 110 110)">
<rect x="28" y="40" width="160" height="112" rx="6" fill="#a7a096"/>
<path d="M28 96h160M108 40v112" stroke="#6f675d" stroke-width="3"/>
<path d="M56 120c10-30 40-38 50-14c12-28 46-14 30 18c-10 20-34 28-44 30c-14-8-42-16-36-34z" fill="none" stroke="#ffb3c7" stroke-width="9" stroke-linecap="round" stroke-dasharray="3 3"/>
<circle cx="160" cy="62" r="9" fill="#fff0a0"/>
</g>
<g transform="rotate(5 290 105)">
<rect x="212" y="34" width="160" height="114" fill="#fffaf0"/>
<rect x="212" y="34" width="160" height="114" fill="none" stroke="#e5dcc9" stroke-width="6"/>
<circle cx="262" cy="86" r="30" fill="#2a46b6" opacity=".45"/>
<circle cx="300" cy="96" r="28" fill="#d2336f" opacity=".45"/>
<circle cx="282" cy="118" r="22" fill="#f3cd10" opacity=".55"/>
<circle cx="262" cy="86" r="30" fill="none" stroke="#2a46b6" stroke-width="2" opacity=".5"/>
</g>
<g transform="rotate(4 110 210)">
<rect x="34" y="160" width="150" height="104" fill="#f3ecda"/>
<path d="M120 252c-4-30 2-60 10-82" stroke="#1d1b19" stroke-width="10" stroke-linecap="round" fill="none"/>
<path d="M126 200c-18-10-32-10-46-4M130 182c14-12 26-14 38-12M124 226c16-6 28-4 36 2" stroke="#1d1b19" stroke-width="6" stroke-linecap="round" fill="none"/>
<rect x="58" y="226" width="20" height="20" fill="#c4231b"/>
</g>
<g transform="rotate(-4 296 210)">
<rect x="216" y="162" width="160" height="104" fill="#8c3b2b"/>
<path d="M216 188h160M216 214h160M216 240h160M256 162v26M316 162v26M236 188v26M296 188v26M356 188v26M256 214v26M316 214v26M236 240v26M296 240v26M356 240v26" stroke="#b6a998" stroke-width="3"/>
<path d="M296 178l9 20 22 2-16 15 5 22-20-12-20 12 5-22-16-15 22-2z" fill="#ffe600"/>
<path d="M286 236v20M300 236v14" stroke="#ffe600" stroke-width="3" stroke-linecap="round"/>
</g>
<g transform="rotate(-28 200 150)">
<rect x="120" y="143" width="120" height="14" rx="7" fill="#d9a066"/>
<rect x="232" y="141" width="22" height="18" rx="3" fill="#c0c6cc"/>
<path d="M254 141c18 0 30 5 36 9c-6 4-18 9-36 9z" fill="#2a2622"/>
</g>
</svg>
