<svg xmlns="http://www.w3.org/2000/svg" viewBox="0 0 400 300"><rect width="400" height="300" fill="#1e88e5"/><circle cx="40" cy="40" r="90" fill="#42a5f5"/><circle cx="370" cy="270" r="100" fill="#1565c0"/><path d="M70 30v240" stroke="#5d4037" stroke-width="8" stroke-linecap="round"/><circle cx="70" cy="28" r="8" fill="#ffd54a"/><g transform="translate(74 40)"><path d="M0 0q40-10 80 0t80 0v100q-40 10-80 0t-80 0z" fill="#fff"/><path d="M0 0q27-7 53-3v100q-26-4-53 3z" fill="#009246"/><path d="M107-3q27 7 53 3v100q-26 4-53-3z" fill="#ce2b37"/><path d="M0 0q40-10 80 0t80 0v100q-40 10-80 0t-80 0z" fill="none" stroke="#000" stroke-opacity=".12" stroke-width="3"/></g><g transform="translate(250 160)"><rect width="120" height="80" rx="8" fill="#fff"/><rect y="0" width="120" height="27" fill="#000" rx="8"/><rect y="26" width="120" height="27" fill="#dd0000"/><rect y="53" width="120" height="27" fill="#ffce00" rx="8"/><rect y="53" width="120" height="10" fill="#ffce00"/></g><g transform="translate(110 185)"><rect width="110" height="74" rx="8" fill="#003893"/><rect width="110" height="74" rx="8" fill="#fff" opacity="0"/><path d="M0 0h110v74H0z" fill="none"/><rect y="0" width="110" height="74" rx="8" fill="#002395"/><rect x="0" y="0" width="37" height="74" fill="#002395"/><rect x="37" y="0" width="37" height="74" fill="#fff"/><rect x="74" y="0" width="36" height="74" rx="0" fill="#ed2939"/></g><g transform="translate(300 40)"><circle r="36" fill="#fff" stroke="#0d47a1" stroke-width="4"/><text y="14" font-family="Arial,sans-serif" font-size="40" font-weight="900" text-anchor="middle" fill="#1e88e5">?</text></g></svg>
