<svg xmlns="http://www.w3.org/2000/svg" viewBox="0 0 400 300"><defs><linearGradient id="c" x1="0" y1="0" x2="1" y2="1"><stop offset="0" stop-color="#f7f9fb"/><stop offset=".45" stop-color="#aeb8c2"/><stop offset="1" stop-color="#59636e"/></linearGradient><radialGradient id="d" cx=".5" cy=".38" r=".7"><stop offset="0" stop-color="#fffdf8"/><stop offset="1" stop-color="#e9e3d6"/></radialGradient></defs><rect width="400" height="300" fill="#00897b"/><circle cx="200" cy="168" r="150" fill="#26a69a" opacity=".5"/><circle cx="200" cy="22" r="15" fill="none" stroke="url(#c)" stroke-width="7"/><rect x="184" y="36" width="32" height="16" rx="5" fill="url(#c)"/><rect x="193" y="50" width="14" height="12" fill="url(#c)"/><rect x="104" y="70" width="18" height="16" rx="3" fill="url(#c)" transform="rotate(-42 113 78)"/><rect x="278" y="70" width="18" height="16" rx="3" fill="url(#c)" transform="rotate(42 287 78)"/><circle cx="200" cy="172" r="114" fill="url(#c)"/><circle cx="200" cy="172" r="103" fill="#2d3238"/><circle cx="200" cy="172" r="95" fill="url(#d)"/><g stroke="#26292d" stroke-width="4" stroke-linecap="round"><path d="M200 86v12M285 172h-12M200 258v-12M115 172h12M243 98l-6 10M274 129l-10 6M274 215l-10-6M243 246l-6-10M157 246l6-10M126 215l10-6M126 129l10 6M157 98l6 10"/></g><path d="M249 84 L259 92 L247 98Z" fill="#e0352b"/><rect x="160" y="196" width="80" height="26" rx="6" fill="#c8f5c0" stroke="#8b8f94"/><text x="200" y="215" text-anchor="middle" font-family="Menlo,monospace" font-weight="800" font-size="17" fill="#24301e">10.000</text><path d="M197 190 L199 90 L201 90 L203 190Z" fill="#e0352b" transform="rotate(60 200 172)"/><circle cx="200" cy="172" r="7" fill="#e0352b"/><circle cx="200" cy="172" r="3" fill="#fff"/><path d="M116 140 A95 95 0 0 1 250 92 A110 80 0 0 0 116 140Z" fill="#fff" opacity=".35"/></svg>
