<svg xmlns="http://www.w3.org/2000/svg" viewBox="0 0 400 300"><rect width="400" height="300" fill="#ab47bc"/><circle cx="80" cy="60" r="90" fill="#ff8a80" opacity=".35"/><circle cx="340" cy="260" r="110" fill="#80d8ff" opacity=".35"/><g transform="rotate(-8 130 150)"><rect x="50" y="58" width="160" height="190" rx="14" fill="#fff"/><rect x="50" y="58" width="160" height="140" rx="14" fill="#1fa58d"/><rect x="50" y="180" width="160" height="18" fill="#1fa58d"/><rect x="64" y="210" width="80" height="10" rx="4" fill="#2a2622"/><rect x="64" y="226" width="56" height="7" rx="3" fill="#a8a096"/></g><g transform="rotate(7 270 150)"><rect x="190" y="52" width="160" height="190" rx="14" fill="#fff"/><path d="M190 66 a14 14 0 0 1 14 -14 h132 a14 14 0 0 1 14 14 v126 h-160z" fill="#22b39a"/><rect x="204" y="204" width="80" height="10" rx="4" fill="#2a2622"/><rect x="204" y="220" width="40" height="7" rx="3" fill="#a8a096"/><circle cx="270" cy="122" r="24" fill="none" stroke="#fff" stroke-width="5"/><path d="M262 122 l6 7 12 -14" stroke="#fff" stroke-width="5" fill="none" stroke-linecap="round"/></g><circle cx="345" cy="50" r="16" fill="#ffc233"/><circle cx="372" cy="80" r="10" fill="#ff5a36"/><circle cx="30" cy="250" r="14" fill="#2ecc71"/></svg>
